<?xml version="1.0" standalone="no"?>
<!DOCTYPE svg PUBLIC "-//W3C//DTD SVG 20010904//EN"
 "http://www.w3.org/TR/2001/REC-SVG-20010904/DTD/svg10.dtd">
<svg version="1.0" xmlns="http://www.w3.org/2000/svg"
 width="400.000000pt" height="400.000000pt" viewBox="0 0 400.000000 400.000000"
 preserveAspectRatio="xMidYMid meet">
<metadata>
Created by potrace 1.14, written by Peter Selinger 2001-2017
</metadata>
<g transform="translate(0.000000,400.000000) scale(0.100000,-0.100000)"
fill="#000000" stroke="none">
<path d="M610 3137 l0 -864 23 -21 c35 -33 125 -31 157 3 l23 25 1224 0 c1052
0 1229 2 1259 15 66 28 64 -6 64 895 l0 810 -50 0 -50 0 0 -810 0 -810 -585 0
-585 0 0 360 0 360 23 0 c32 0 84 35 107 72 17 28 20 51 20 153 0 102 -3 125
-20 153 -37 60 -70 72 -205 72 -102 0 -125 -3 -153 -20 -60 -37 -72 -70 -72
-205 0 -102 3 -125 20 -153 23 -37 75 -72 108 -72 l22 0 0 -360 0 -360 -565 0
-565 0 0 810 0 810 -100 0 -100 0 0 -863z"/>
<path d="M1820 1911 c-343 -73 -620 -352 -691 -696 -116 -561 310 -1085 881
-1085 498 0 900 402 900 900 0 500 -404 902 -905 899 -56 0 -138 -8 -185 -18z"/>
</g>
</svg>
