<?xml version="1.0" standalone="no"?>
<!DOCTYPE svg PUBLIC "-//W3C//DTD SVG 20010904//EN"
 "http://www.w3.org/TR/2001/REC-SVG-20010904/DTD/svg10.dtd">
<svg version="1.0" xmlns="http://www.w3.org/2000/svg"
 width="560.000000pt" height="560.000000pt" viewBox="0 0 560.000000 560.000000"
 preserveAspectRatio="xMidYMid meet">
<metadata>
Created by potrace 1.14, written by Peter Selinger 2001-2017
</metadata>
<g transform="translate(0.000000,560.000000) scale(0.100000,-0.100000)"
fill="#000000" stroke="none">
<path d="M0 5471 l0 -129 76 -7 c214 -20 489 70 642 212 l57 52 -387 1 -388 0
0 -129z"/>
<path d="M1362 5007 l-22 -23 0 -1355 0 -1356 23 -21 c35 -33 125 -31 157 3
l23 25 1224 0 c1052 0 1229 2 1259 15 68 28 64 -49 64 1308 l0 1224 25 23 c21
20 25 33 25 80 0 46 -4 61 -23 78 l-23 22 -1355 0 -1356 0 -21 -23z m2628
-1402 l0 -1225 -585 0 -585 0 0 360 0 360 23 0 c32 0 84 35 107 72 17 28 20
51 20 153 0 135 -12 168 -72 205 -28 17 -51 20 -153 20 -102 0 -125 -3 -153
-20 -60 -37 -72 -70 -72 -205 0 -102 3 -125 20 -153 23 -37 75 -72 108 -72
l22 0 0 -360 0 -360 -565 0 -565 0 0 1225 0 1225 1225 0 1225 0 0 -1225z"/>
<path d="M2550 1911 c-343 -73 -620 -352 -691 -696 -116 -561 310 -1085 881
-1085 498 0 900 402 900 900 0 500 -404 902 -905 899 -56 0 -138 -8 -185 -18z"/>
</g>
</svg>
